<svg width="640" height="480" viewBox="0 0 640 480" fill="none" xmlns="http://www.w3.org/2000/svg">
<rect width="640" height="480" fill="#D9D9D9"/>
<g clip-path="url(#clip0_211_119)">
<path d="M298 218L342 262M338 258H302C300.939 258 299.922 257.579 299.172 256.828C298.421 256.078 298 255.061 298 254V232C298 230.939 298.421 229.922 299.172 229.172C299.922 228.421 300.939 228 302 228H308M314 222H326L330 228H338C339.061 228 340.078 228.421 340.828 229.172C341.579 229.922 342 230.939 342 232V250.68M326.56 246.56C325.896 247.53 325.027 248.342 324.014 248.938C323 249.534 321.868 249.899 320.698 250.008C319.527 250.117 318.347 249.966 317.242 249.567C316.136 249.168 315.132 248.53 314.301 247.699C313.47 246.868 312.832 245.864 312.433 244.758C312.034 243.653 311.883 242.473 311.992 241.302C312.101 240.132 312.466 239 313.062 237.986C313.658 236.973 314.47 236.104 315.44 235.44" stroke="#1E1E1E" stroke-width="4" stroke-linecap="round" stroke-linejoin="round"/>
</g>
<defs>
<clipPath id="clip0_211_119">
<rect width="48" height="48" fill="white" transform="translate(296 216)"/>
</clipPath>
</defs>
</svg>
